<?xml version="1.0" standalone="no"?><!DOCTYPE svg PUBLIC "-//W3C//DTD SVG 1.1//EN" "http://www.w3.org/Graphics/SVG/1.1/DTD/svg11.dtd"><svg t="1534948072679" class="icon" style="" viewBox="0 0 1025 1024" version="1.1" xmlns="http://www.w3.org/2000/svg" p-id="8362" xmlns:xlink="http://www.w3.org/1999/xlink" width="128.125" height="128"><defs><style type="text/css"></style></defs><path d="M960.341 961.534c0 17.875-12.503 32.454-28.013 32.454H91.86c-15.377 0-27.883-14.579-27.883-32.454 0-18.003 12.506-32.454 27.883-32.454h840.467c15.51 0 28.013 14.45 28.013 32.454zM855.486 272.739c-12.381 12.615-32.764 12.615-45.265 0L674.54 135.118c-12.441-12.61-12.441-33.278 0-45.89l45.265-45.96c12.383-12.616 32.764-12.616 45.27 0L900.882 180.95c12.379 12.68 12.379 33.34 0 45.894l-45.396 45.894zM357.66 777.576c-12.382 12.551-32.766 12.551-45.267 0l-135.87-137.619c-12.441-12.615-12.441-33.281-0.062-45.892L583.94 180.95c12.44-12.55 32.826-12.55 45.266 0l135.744 137.682c12.507 12.68 12.507 33.345 0 45.896l-407.29 413.047zM131.189 685.85c-12.438-12.611-25.445-8.617-28.882 8.876L69.543 860.618c-3.44 17.495 7.879 28.905 25.136 25.42l163.565-33.092c17.257-3.487 21.129-16.67 8.753-29.35L131.19 685.85z" p-id="8363" fill="#ffffff"></path></svg>