<?xml version="1.0" standalone="no"?><!DOCTYPE svg PUBLIC "-//W3C//DTD SVG 1.1//EN" "http://www.w3.org/Graphics/SVG/1.1/DTD/svg11.dtd"><svg t="1536746507685" class="icon" style="" viewBox="0 0 1024 1024" version="1.1" xmlns="http://www.w3.org/2000/svg" p-id="3647" xmlns:xlink="http://www.w3.org/1999/xlink" width="200" height="200"><defs><style type="text/css"></style></defs><path d="M184.665169 962.12853899a506.247191 506.247191 0 1 1 662.148314-6.443146c-73.981124-29.339326-172.58427-57.52809-197.666517-67.76809a92.965393 92.965393 0 0 0-17.373483-11.50561799l1e-8-61.32494301c29.799551-26.693034 44.986966-89.513708 58.33348299-132.889888a73.405843 73.405843 0 0 0 39.234158-51.775281c8.514157-34.516854-2.41618-65.927191-24.506967-73.290786 21.055281-69.83910099 9.89483099-120.233708 0-145.66112399-3.681798-8.053933-10.585169-18.98427-12.195955-22.20584302s-0.575281-0.575281-0.92044899-0.92044899l-1.15056201-2.186068a143.935281 143.935281 0 0 0-48.898876-55.457078 42.685843 42.685843 0 0 0-9.089439-5.522697 153.715056 153.715056 0 0 0-37.738427-14.38202199 204.109663 204.109663 0 0 0-32.21573-7.13348401c-9.434607-1.49573-17.603596-2.41618-23.816629-2.876404a48.438652 48.438652 0 0 0-10.24-0.575281l-2.646292 0c-72.600449-4.25707899-110.799101 26.80809-126.561798 45.102023-1.610787 1.610787 2.301124 3.106517 1.035506 4.602247l-5.522697 3.681797a53.846292 53.846292 0 0 0-9.89483101 5.407641c-9.779775 2.87640399-39.349213 17.603596-53.84629299 90.434157a202.959101 202.959101 0 0 0 7.24854 109.073259c-21.285393 8.168989-31.640449 39.924494-23.011236 73.635955 6.788315 27.153258 23.701573 47.633258 41.880449 53.155955 13.46157299 42.110562 30.604944 103.55056201 59.253933 129.668314l0 60.864719a93.195506 93.195506 0 0 0-17.25842701 11.505618c-27.613483 10.815281-139.333034 43.261124-214.57977499 74.786517z" p-id="3648" fill="#E9E9E9"></path><path d="M184.665169 962.12853899a506.247191 506.247191 0 1 1 662.148314-6.443146c-73.981124-29.339326-172.58427-57.52809-197.666517-67.76809a92.965393 92.965393 0 0 0-17.373483-11.50561799l1e-8-61.32494301c29.799551-26.693034 44.986966-89.513708 58.33348299-132.889888a73.405843 73.405843 0 0 0 39.234158-51.775281c8.514157-34.516854-2.41618-65.927191-24.506967-73.290786 21.055281-69.83910099 9.89483099-120.233708 0-145.66112399-3.681798-8.053933-10.585169-18.98427-12.195955-22.20584302s-0.575281-0.575281-0.92044899-0.92044899l-1.15056201-2.186068a143.935281 143.935281 0 0 0-48.898876-55.457078 42.685843 42.685843 0 0 0-9.089439-5.522697 153.715056 153.715056 0 0 0-37.738427-14.38202199 204.109663 204.109663 0 0 0-32.21573-7.13348401c-9.434607-1.49573-17.603596-2.41618-23.816629-2.876404a48.438652 48.438652 0 0 0-10.24-0.575281l-2.646292 0c-72.600449-4.25707899-110.799101 26.80809-126.561798 45.102023-1.610787 1.610787 2.301124 3.106517 1.035506 4.602247l-5.522697 3.681797a53.846292 53.846292 0 0 0-9.89483101 5.407641c-9.779775 2.87640399-39.349213 17.603596-53.84629299 90.434157a202.959101 202.959101 0 0 0 7.24854 109.073259c-21.285393 8.168989-31.640449 39.924494-23.011236 73.635955 6.788315 27.153258 23.701573 47.633258 41.880449 53.155955 13.46157299 42.110562 30.604944 103.55056201 59.253933 129.668314l0 60.864719a93.195506 93.195506 0 0 0-17.25842701 11.505618c-27.613483 10.815281-139.333034 43.261124-214.57977499 74.786517z" p-id="3649" fill="#E9E9E9"></path></svg>