<?xml version="1.0" standalone="no"?><!DOCTYPE svg PUBLIC "-//W3C//DTD SVG 1.1//EN" "http://www.w3.org/Graphics/SVG/1.1/DTD/svg11.dtd"><svg t="1534946321272" class="icon" style="" viewBox="0 0 1024 1024" version="1.1" xmlns="http://www.w3.org/2000/svg" p-id="15586" xmlns:xlink="http://www.w3.org/1999/xlink" width="128" height="128"><defs><style type="text/css"></style></defs><path d="M905.218298 223.893299 692.25135 22.215989C680.214275 10.835135 656.446558 1.495192 639.471748 1.495192L287.920247 1.495193C270.945436 1.495193 257.054847 14.628754 257.054847 30.68193L257.054847 152.972068 127.731242 152.972068C110.756431 152.972068 96.865842 166.105628 96.865842 182.158804L96.865842 993.828563C96.865842 1009.880173 110.754774 1023.015302 127.731242 1023.015302L736.387846 1023.015302C753.362656 1023.015302 767.253242 1009.881741 767.253242 993.828563L767.253242 871.82976 896.268755 871.82976C913.243571 871.82976 927.134157 858.696205 927.134157 842.643027L927.134157 273.511064C927.132499 257.456323 917.255373 235.277286 905.218298 223.893299L905.218298 223.893299ZM566.013621 748.078253C566.013621 764.131424 552.124689 777.264986 535.148221 777.264986L329.280611 777.264986C321.56509 777.264986 314.77384 774.63984 309.218267 770.260422 302.735109 764.715661 298.416867 756.835526 298.416867 748.078253L298.416867 744.575968C298.416867 728.524358 312.305799 715.389229 329.282268 715.389229L535.148221 715.389229C552.123032 715.389229 566.013621 728.52279 566.013621 744.575968L566.013621 748.078253 566.013621 748.078253ZM566.013621 624.328305C566.013621 640.381478 552.124689 653.51504 535.148221 653.51504L329.280611 653.51504C321.873181 653.51504 315.081931 651.181229 309.836106 646.803379 302.735109 641.549952 298.416869 633.376913 298.416869 624.329872L298.416869 620.827588C298.416869 604.77598 312.305801 591.640851 329.282269 591.640851L535.148221 591.640851C552.123032 591.640851 566.013621 604.774412 566.013621 620.827588L566.013621 624.328305 566.013621 624.328305ZM566.013621 500.87126C566.013621 516.922868 552.124689 530.057997 535.148221 530.057997L329.280611 530.057997C312.305801 530.057997 298.415212 516.924436 298.415212 500.87126L298.415212 497.368976C298.415212 481.317368 312.304143 468.182239 329.280611 468.182239L535.148221 468.182241C552.123032 468.182241 566.013621 481.315802 566.013621 497.368978L566.013621 500.87126 566.013621 500.87126ZM827.130528 748.078253C827.130528 761.796045 817.253402 773.180032 803.672557 776.389414 801.202861 776.973651 798.733171 777.263424 796.265126 777.263424L767.25159 777.263424 767.251584 424.987939C767.251584 408.934764 757.374458 386.461258 745.337382 375.078838L532.370435 173.40153C520.335016 162.310445 496.567302 152.970502 479.592492 152.970502L357.058479 152.970502 357.058479 125.243572C357.058479 122.908195 357.368226 120.572818 357.986063 118.239007 361.380031 105.39678 373.418764 96.056837 387.923877 96.056837L598.113041 96.056837C615.089507 96.056837 638.855568 105.396781 650.582894 116.779201L805.216326 263.001085C817.253402 274.383505 827.130528 296.858577 827.130528 312.910185L827.130528 748.078253 827.130528 748.078253Z" p-id="15587"></path></svg>