<?xml version="1.0" standalone="no"?><!DOCTYPE svg PUBLIC "-//W3C//DTD SVG 1.1//EN" "http://www.w3.org/Graphics/SVG/1.1/DTD/svg11.dtd"><svg t="1534945100412" class="icon" style="" viewBox="0 0 1024 1024" version="1.1" xmlns="http://www.w3.org/2000/svg" p-id="8168" xmlns:xlink="http://www.w3.org/1999/xlink" width="128" height="128"><defs><style type="text/css"></style></defs><path d="M857.6 448H744.4c-21.6 0-39.4 17.7-39.4 39.4v113.3c0 21.6 17.7 39.4 39.4 39.4h113.3c21.6 0 39.4-17.7 39.4-39.4V487.4c-0.1-21.7-17.8-39.4-39.5-39.4z m-0.6 133.5c0 10.2-8.3 18.5-18.5 18.5h-75c-10.2 0-18.5-8.3-18.5-18.5v-75c0-10.2 8.3-18.5 18.5-18.5h75c10.2 0 18.5 8.3 18.5 18.5v75zM577 300H321c-11 0-20 9-20 20s9 20 20 20h256c11 0 20-9 20-20s-9-20-20-20zM449 428H321c-11 0-20 9-20 20s9 20 20 20h128c11 0 20-9 20-20s-9-20-20-20z" p-id="8169"></path><path d="M886.1 192H331.9c-41.2 0-74.9 33.7-74.9 74.9v199.8L74.2 567.6c-9.6 5.4-13 17.6-7.6 27.2C70.2 601.3 77 605 84 605c3.3 0 6.7-0.8 9.8-2.6L257 512.6v101.1c-6.1 6.9-6.8 17.5-1 25.2 6.6 8.9 19.1 10.7 28 4.1l144.7-107.8c0.7-0.5 7.8-5 17.6-6.6 13.8-2.4 26.1 2.1 37.6 13.6 24.7 24.7 16 56.4 12.8 65.4L274.4 864.3c-3 2.8-31.9 28.7-81.4 28.7-61.6 0-110.1 1.6-110.6 1.6-11 0.4-19.7 9.6-19.3 20.7 0.4 10.8 9.2 19.3 20 19.3h0.7c0.5 0 48.3-1.6 109.2-1.6 69.7 0 108.7-39.4 110.3-41.1 0.3-0.3 0.5-0.6 0.8-0.8L466 704h75.9L432.8 884.5c-5.7 9.5-2.7 21.7 6.8 27.5 3.2 2 6.8 2.9 10.3 2.9 6.8 0 13.4-3.4 17.1-9.7l115.3-190.8c2-3.2 2.9-6.8 2.9-10.3h115.6l-109 180.4c-5.7 9.5-2.7 21.7 6.8 27.5 3.2 2 6.8 2.9 10.3 2.9 6.8 0 13.4-3.4 17.1-9.7l115.3-190.8c2-3.2 2.9-6.8 2.9-10.3H886c41.2 0 74.9-33.7 74.9-74.9V266.9c0.1-41.2-33.6-74.9-74.8-74.9zM921 629.1c0 9.2-3.7 18-10.3 24.6-6.6 6.6-15.4 10.3-24.6 10.3H500.6l28.5-32.9c1.3-1.5 2.3-3.1 3.1-4.9 0.7-1.5 5.8-13.3 7.8-30.2h81c11 0 20-9 20-20s-9-20-20-20h-83.9c-4.4-15.8-12.8-30-24.9-42.1-26.2-26.2-54-27.9-72.6-24.7-19.3 3.3-32.7 12.5-34.1 13.6-0.1 0.1-0.2 0.2-0.3 0.2L297 583.4V266.9c0-9.2 3.7-18 10.3-24.6 6.6-6.6 15.4-10.3 24.6-10.3h554.2c9.2 0 18 3.7 24.6 10.3 6.6 6.6 10.3 15.4 10.3 24.6v362.2z" p-id="8170"></path></svg>