<?xml version="1.0" standalone="no"?><!DOCTYPE svg PUBLIC "-//W3C//DTD SVG 1.1//EN" "http://www.w3.org/Graphics/SVG/1.1/DTD/svg11.dtd"><svg t="1534944761250" class="icon" style="" viewBox="0 0 1024 1024" version="1.1" xmlns="http://www.w3.org/2000/svg" p-id="1092" xmlns:xlink="http://www.w3.org/1999/xlink" width="128" height="128"><defs><style type="text/css"></style></defs><path d="M511.698636 62.998823C264.159844 62.998823 63.489498 263.667122 63.489498 511.205914s200.670346 448.208115 448.209138 448.208115 448.208115-200.670346 448.208115-448.208115S759.237429 62.998823 511.698636 62.998823zM724.462414 530.540262c-0.678452 1.480724-1.472538 2.616594-1.939165 3.267417-0.217964 0.38988-0.433882 0.801249-0.652869 1.215688-1.257643 2.382257-2.926656 5.544273-5.808286 8.559956l-0.189312 0.192382c-0.179079 0.182149-0.350994 0.345877-0.512676 0.497327-0.575098 0.823761-1.208525 1.585101-1.889023 2.266623L451.314361 799.212374c-9.376555 9.018398-21.684882 13.984503-34.663474 13.984503-13.719466 0-26.497491-5.434779-35.977399-15.299451-19.085684-19.818371-18.500353-51.494815 1.308809-70.606081l225.702462-217.537502L381.148301 295.451012c-19.995403-18.932188-20.87647-50.610678-1.966795-70.617337 9.41544-9.928117 22.650883-15.618723 36.31509-15.618723 12.811794 0 24.995277 4.846378 34.305317 13.646811l264.368086 250.048963C729.758024 487.632009 733.895251 510.792499 724.462414 530.540262z" p-id="1093"></path></svg>