<?xml version="1.0" standalone="no"?><!DOCTYPE svg PUBLIC "-//W3C//DTD SVG 1.1//EN" "http://www.w3.org/Graphics/SVG/1.1/DTD/svg11.dtd"><svg t="1534944723409" class="icon" style="" viewBox="0 0 1024 1024" version="1.1" xmlns="http://www.w3.org/2000/svg" p-id="1086" xmlns:xlink="http://www.w3.org/1999/xlink" width="128" height="128"><defs><style type="text/css"></style></defs><path d="M510.903527 62.421678c247.683079 0 448.462918 200.814632 448.462918 448.547853 0 247.730151-200.779839 448.546829-448.462918 448.546829-247.682056 0-448.460872-200.816678-448.460872-448.546829C62.442656 263.235286 263.221472 62.421678 510.903527 62.421678L510.903527 62.421678zM298.00058 530.331507c0.683569 1.494027 1.455141 2.629897 1.956561 3.266393 0.208754 0.394996 0.422625 0.819668 0.636496 1.197268 1.240247 2.38021 2.939959 5.533017 5.819542 8.593725l0.166799 0.165776 0.500397 0.50142c0.558725 0.810459 1.210571 1.591241 1.876744 2.2656l262.321474 252.867148c9.395998 9.05012 21.700231 14.013155 34.68701 14.013155 13.71435 0 26.521027-5.433756 35.977399-15.308661 19.10922-19.825534 18.502399-51.534723-1.303692-70.677713L414.795633 509.513366l226.647997-214.461443c20.004613-18.946514 20.881586-50.640354 1.985214-70.677713-9.426697-9.930163-22.657023-15.642259-36.340673-15.642259-12.836353 0-24.990161 4.862751-34.30941 13.653975L308.243875 472.632387c-15.592117 14.71719-19.742646 37.912471-10.272971 57.662281L298.00058 530.331507zM298.00058 530.331507" p-id="1087" fill="#333333"></path></svg>