<?xml version="1.0" standalone="no"?><!DOCTYPE svg PUBLIC "-//W3C//DTD SVG 1.1//EN" "http://www.w3.org/Graphics/SVG/1.1/DTD/svg11.dtd"><svg t="1534944994679" class="icon" style="" viewBox="0 0 1024 1024" version="1.1" xmlns="http://www.w3.org/2000/svg" p-id="6331" xmlns:xlink="http://www.w3.org/1999/xlink" width="128" height="128"><defs><style type="text/css"></style></defs><path d="M682.666667 398.222222c13.653333 15.928889 27.306667 31.857778 40.96 45.511111 11.377778 13.653333 25.031111 29.582222 40.96 47.786667s29.582222 34.133333 45.511111 52.337778c20.48 22.755556 36.408889 43.235556 50.062222 61.44 13.653333 18.204444 22.755556 34.133333 31.857778 50.062222 6.826667 15.928889 13.653333 29.582222 15.928889 40.96 2.275556 13.653333 4.551111 25.031111 4.551111 38.684444v59.164445c0 18.204444-2.275556 34.133333-9.102222 50.062222-6.826667 13.653333-13.653333 27.306667-25.031112 38.684445-11.377778 11.377778-22.755556 18.204444-36.408888 25.031111-13.653333 6.826667-27.306667 9.102222-43.235556 9.102222H234.382222c-15.928889 0-31.857778-2.275556-47.786666-9.102222-15.928889-4.551111-27.306667-13.653333-38.684445-22.755556s-20.48-22.755556-27.306667-36.408889c-6.826667-13.653333-11.377778-29.582222-11.377777-47.786666v-70.542223c0-13.653333 2.275556-29.582222 4.551111-40.96 2.275556-13.653333 6.826667-27.306667 15.928889-40.96 6.826667-18.204444 15.928889-31.857778 29.582222-50.062222 13.653333-15.928889 29.582222-34.133333 47.786667-54.613333 15.928889-18.204444 31.857778-34.133333 50.062222-52.337778 15.928889-18.204444 31.857778-34.133333 45.511111-47.786667 15.928889-15.928889 31.857778-31.857778 45.511111-47.786666H682.666667z m-170.666667 345.884445c15.928889 0 31.857778-2.275556 45.511111-9.102223 13.653333-6.826667 27.306667-13.653333 36.408889-25.031111 11.377778-11.377778 18.204444-22.755556 25.031111-36.408889 6.826667-13.653333 9.102222-29.582222 9.102222-45.511111s-2.275556-31.857778-9.102222-45.511111c-6.826667-13.653333-13.653333-27.306667-25.031111-36.408889-11.377778-11.377778-22.755556-18.204444-36.408889-25.031111-13.653333-6.826667-29.582222-9.102222-45.511111-9.102222s-31.857778 2.275556-45.511111 9.102222c-13.653333 6.826667-27.306667 13.653333-36.408889 25.031111-11.377778 11.377778-18.204444 22.755556-25.031111 36.408889-6.826667 13.653333-9.102222 29.582222-9.102222 45.511111s2.275556 31.857778 9.102222 45.511111c6.826667 13.653333 13.653333 27.306667 25.031111 36.408889 11.377778 11.377778 22.755556 18.204444 36.408889 25.031111 13.653333 6.826667 29.582222 9.102222 45.511111 9.102223z m457.386667-457.386667v56.888889c0 15.928889-4.551111 29.582222-15.928889 40.96-11.377778 11.377778-25.031111 15.928889-40.96 15.928889h-113.777778c-15.928889 0-29.582222-4.551111-40.96-15.928889-11.377778-11.377778-15.928889-25.031111-15.928889-40.96v-56.888889H282.168889v56.888889c0 15.928889-4.551111 29.582222-15.928889 40.96-11.377778 11.377778-25.031111 15.928889-40.96 15.928889h-113.777778c-15.928889 0-29.582222-4.551111-40.96-15.928889-11.377778-11.377778-15.928889-25.031111-15.928889-40.96v-59.164445c0-6.826667 2.275556-13.653333 4.551111-18.204444l13.653334-13.653333c4.551111-4.551111 11.377778-9.102222 18.204444-11.377778 6.826667-2.275556 13.653333-6.826667 20.48-11.377778 6.826667-4.551111 22.755556-11.377778 45.511111-25.031111 22.755556-11.377778 52.337778-25.031111 88.746667-38.684444 36.408889-13.653333 75.093333-25.031111 120.604444-36.408889s93.297778-15.928889 145.635556-15.928889c59.164444 0 111.502222 4.551111 157.013333 15.928889 45.511111 11.377778 86.471111 22.755556 120.604445 36.408889 34.133333 13.653333 61.44 27.306667 81.92 38.684444 20.48 11.377778 34.133333 20.48 40.96 25.031111 6.826667 4.551111 13.653333 9.102222 20.48 11.377778 6.826667 2.275556 13.653333 6.826667 18.204444 11.377778l13.653334 13.653333c2.275556 4.551111 4.551111 11.377778 4.551111 20.48z m0 0" fill="" p-id="6332"></path></svg>