<?xml version="1.0" standalone="no"?><!DOCTYPE svg PUBLIC "-//W3C//DTD SVG 1.1//EN" "http://www.w3.org/Graphics/SVG/1.1/DTD/svg11.dtd"><svg t="1534944964087" class="icon" style="" viewBox="0 0 1024 1024" version="1.1" xmlns="http://www.w3.org/2000/svg" p-id="1102" xmlns:xlink="http://www.w3.org/1999/xlink" width="128" height="128"><defs><style type="text/css"></style></defs><path d="M289.408 37.056c0 0-77.44-4.032-77.312 77.312l0 822.656c0 0 0 72 73.472 77.376l437.056 0c0 0 83.2 0 83.072-91.712L805.696 129.664c0 0 7.296-87.68-81.088-92.608L442.112 37.056 439.232 68.544l133.632 0 0 42.944L439.488 112l4.992 16.192 299.136 0.448 1.472 686.656-473.92-1.408L272.192 128.704 271.232 813.952l240.832 0.704 0.256 4.48L510.976 875.52c0 0 33.536-0.192 35.776 39.232-1.024 15.488-7.616 36.608-37.824 38.72-26.432-0.96-37.888-20.032-39.104-38.208 5.376-43.264 41.216-39.808 41.216-39.808l234.24-60.096L743.616 128.704l1.472 686.656-473.92-1.408L272.192 128.704l172.224-0.448L439.488 112 439.232 68.544l10.304-31.488L289.408 37.056z" p-id="1103"></path></svg>