<?xml version="1.0" standalone="no"?><!DOCTYPE svg PUBLIC "-//W3C//DTD SVG 1.1//EN" "http://www.w3.org/Graphics/SVG/1.1/DTD/svg11.dtd"><svg t="1534945607153" class="icon" style="" viewBox="0 0 1024 1024" version="1.1" xmlns="http://www.w3.org/2000/svg" p-id="1898" xmlns:xlink="http://www.w3.org/1999/xlink" width="128" height="128"><defs><style type="text/css"></style></defs><path d="M667.709 132.498c-48.667-19.782-100.246-29.733-152.917-29.733-52.793 0-104.251 10.073-152.917 29.733-50.486 20.511-95.756 50.486-134.47 89.324-38.836 38.836-68.813 84.105-89.324 134.47-19.782 48.667-29.733 100.246-29.733 152.917 0 52.793 10.073 104.251 29.733 152.917 20.511 50.486 50.486 95.756 89.324 134.47 38.836 38.836 84.105 68.813 134.47 89.324 48.667 19.782 100.125 29.733 152.917 29.733s104.251-10.073 152.917-29.733c50.486-20.511 95.756-50.486 134.47-89.324 38.836-38.836 68.813-84.105 89.324-134.47 19.782-48.667 29.733-100.246 29.733-152.917 0-52.793-10.073-104.251-29.733-152.917-20.511-50.486-50.486-95.756-89.324-134.47-38.836-38.836-84.105-68.813-134.47-89.324zM761.037 755.575c-135.805 135.805-356.807 135.805-492.612 0s-135.805-356.807 0-492.612c135.805-135.805 356.807-135.805 492.612 0 135.805 135.805 135.805 356.807 0 492.612z" fill="" p-id="1899"></path><path d="M512.971 267.211c-16.020 0-29.127 13.107-29.127 29.127v187.263h-187.263c-16.020 0-29.127 13.107-29.127 29.127s13.107 29.127 29.127 29.127h187.263v187.263c0 16.020 13.107 29.127 29.127 29.127s29.127-13.107 29.127-29.127v-187.263h187.263c16.020 0 29.127-13.107 29.127-29.127s-13.107-29.127-29.127-29.127h-187.263v-187.263c0-16.020-13.107-29.127-29.127-29.127z" fill="" p-id="1900"></path></svg>