<?xml version="1.0" standalone="no"?><!DOCTYPE svg PUBLIC "-//W3C//DTD SVG 1.1//EN" "http://www.w3.org/Graphics/SVG/1.1/DTD/svg11.dtd"><svg t="1534946603510" class="icon" style="" viewBox="0 0 1024 1024" version="1.1" xmlns="http://www.w3.org/2000/svg" p-id="16353" xmlns:xlink="http://www.w3.org/1999/xlink" width="128" height="128"><defs><style type="text/css"></style></defs><path d="M323.555556 256l11.548444-92.387556A56.888889 56.888889 0 0 1 391.566222 113.777778h240.867556a56.888889 56.888889 0 0 1 56.462222 49.834666L700.444444 256H910.222222a56.888889 56.888889 0 0 1 56.888889 56.888889v540.444444a56.888889 56.888889 0 0 1-56.888889 56.888889H113.777778a56.888889 56.888889 0 0 1-56.888889-56.888889V312.888889a56.888889 56.888889 0 0 1 56.888889-56.888889h209.777778zM512 782.222222a199.111111 199.111111 0 1 0 0-398.222222 199.111111 199.111111 0 0 0 0 398.222222z m0-56.888889a142.222222 142.222222 0 1 1 0-284.444444 142.222222 142.222222 0 0 1 0 284.444444zM176.071111 232.305778a28.444444 28.444444 0 1 1 0-56.888889h57.400889a28.444444 28.444444 0 1 1 0 56.888889H176.071111z" p-id="16354"></path></svg>